<svg xmlns="http://www.w3.org/2000/svg" xmlns:xlink="http://www.w3.org/1999/xlink" xmlns:lucid="lucid" width="1108" height="1205"><g transform="translate(-112 -160)" lucid:page-tab-id=".Q4MUjXso07N"><path d="M0 0h1360v1760H0z" fill="#fff"/><path d="M360 205c0-2.76 2.24-5 5-5h810c2.76 0 5 2.24 5 5v1130c0 2.76-2.24 5-5 5H365c-2.76 0-5-2.24-5-5z" stroke="#666" fill-opacity="0"/><use xlink:href="#a" transform="matrix(1,0,0,1,368,208) translate(368.75 17.777777777777775)"/><path d="M199.75 799.75c0 10.9-8.84 19.75-19.75 19.75-10.9 0-19.75-8.84-19.75-19.75 0-10.9 8.84-19.75 19.75-19.75 10.9 0 19.75 8.84 19.75 19.75z" stroke="#666" fill="#fff"/><path d="M180 819.5v50.3c0 2.76 1.2 6.9 2.67 9.22L220 938m-40-63.2L140 938m0-98.75h80" stroke="#666" fill="none"/><path d="M140 785c0-2.76 2.24-5 5-5h70c2.76 0 5 2.24 5 5v170c0 2.76-2.24 5-5 5h-70c-2.76 0-5-2.24-5-5z" fill="none"/><use xlink:href="#b" transform="matrix(1,0,0,1,60,938) translate(103.62345679012346 15.777777777777775)"/><path d="M600.5 890c0 38.66-40.3 70-90 70-49.72 0-90-31.34-90-70s40.28-70 90-70c49.7 0 90 31.34 90 70z" stroke="#fff" fill="#3278cc"/><use xlink:href="#c" transform="matrix(1,0,0,1,447.4853588941651,848) translate(9.907552083333329 33.720920138888886)"/><use xlink:href="#d" transform="matrix(1,0,0,1,447.4853588941651,848) translate(76.4765625 33.720920138888886)"/><use xlink:href="#e" transform="matrix(1,0,0,1,447.4853588941651,848) translate(45.584635416666664 62.779079861111114)"/><path d="M760.5 1030.07c0 38.66-40.3 70-90 70-49.72 0-90-31.34-90-70s40.28-70 90-70c49.7 0 90 31.34 90 70z" stroke="#fff" fill="#3278cc"/><use xlink:href="#f" transform="matrix(1,0,0,1,607.4853588941651,988.0659141677693) translate(17.21549479166667 48.25)"/><use xlink:href="#e" transform="matrix(1,0,0,1,607.4853588941651,988.0659141677693) translate(73.95377604166666 48.25)"/><path d="M560.5 1250.13c0 38.66-40.3 70-90 70-49.72 0-90-31.34-90-70s40.28-70 90-70c49.7 0 90 31.34 90 70z" stroke="#fff" fill="#3278cc"/><use xlink:href="#g" transform="matrix(1,0,0,1,407.4853588941651,1208.1318283355386) translate(26.73697916666667 33.720920138888886)"/><use xlink:href="#h" transform="matrix(1,0,0,1,407.4853588941651,1208.1318283355386) translate(6.370225694444443 62.779079861111114)"/><use xlink:href="#i" transform="matrix(1,0,0,1,407.4853588941651,1208.1318283355386) translate(67.37282986111111 62.779079861111114)"/><path d="M900.87 810c0 38.66-40.3 70-90 70s-90-31.34-90-70 40.3-70 90-70 90 31.34 90 70z" stroke="#fff" fill="#3278cc"/><use xlink:href="#j" transform="matrix(1,0,0,1,747.8676794470825,768) translate(10.498914930555557 48.25)"/><use xlink:href="#d" transform="matrix(1,0,0,1,747.8676794470825,768) translate(75.88519965277779 48.25)"/><path d="M181.02 870.04l238.47 19.92M181.03 870.04l-3.5-.3" stroke="#666" fill="none"/><path d="M420 889.5v1l-.57-.04.1-1z" fill="#666"/><path d="M180.98 870.2l398.54 159.68M181 870.2l-3.27-1.32" stroke="#666" fill="none"/><path d="M580 1029.53v1.08l-.68-.26.38-.93zM526.98 1188.7l-3.5 3.86-.74-.67 3.5-3.86zm10.5-11.54l-7 7.7-.74-.67 7-7.7zm10.5-11.55l-7 7.7-.74-.66 7-7.7zm10.5-11.54l-7 7.7-.75-.67 7-7.7zm3.5-3.85l-.75-.66.1-.1h1.35zm17.27-19.43h-.96l.42-.48zm10.7-11.36l-7 7.7-.73-.66 7-7.7zm10.5-11.54l-7 7.7-.73-.67 7-7.7zm10.5-11.55l-7 7.7-.73-.66 7-7.7zm7-7.7l-3.5 3.86-.74-.67 3.5-3.86z" fill="#666"/><path d="M523.5 1192.55l-.28.3-.82-.48.35-.5zM613.98 1108.02l-.98-.2 3.87-18.76-18.3 5.64-.3-.95 19.92-6.15z" fill="#666"/><use xlink:href="#k" transform="matrix(1,0,0,1,525.1149885237946,1130.7655379183207) translate(0 12.444444444444446)"/><path d="M714.25 962.38l-2.8 4.4-.85-.52 2.8-4.42zm8.45-13.23l-5.63 8.82-.84-.54 5.62-8.82zm8.44-13.24l-5.63 8.84-.83-.54 5.63-8.82zm2.8-4.4l-.83-.54 1.03-1.6h1.2zm14.08-22.05l-.8 1.25h-1.18l1.14-1.8zm8.45-13.24l-5.63 8.83-.85-.53 5.62-8.83zM764.9 883l-5.62 8.82-.84-.54 5.62-8.82zm5.64-8.83l-2.82 4.42-.84-.54 2.8-4.4z" fill="#666"/><path d="M711.45 966.78l-.22.35-.96-.36.33-.52zM769.9 893.95l-1-.03.65-19.14-17.1 8.65-.44-.9 18.6-9.4z" fill="#666"/><use xlink:href="#l" transform="matrix(1,0,0,1,694.0530623805004,910.6996237505513) translate(0 12.444444444444446)"/><path d="M600.5 740c0 38.66-40.3 70-90 70-49.72 0-90-31.34-90-70s40.28-70 90-70c49.7 0 90 31.34 90 70z" stroke="#666" fill="#3278cc"/><use xlink:href="#m" transform="matrix(1,0,0,1,447.4853588941651,698) translate(1.4168836805555571 33.720920138888886)"/><use xlink:href="#d" transform="matrix(1,0,0,1,447.4853588941651,698) translate(84.96723090277777 33.720920138888886)"/><use xlink:href="#e" transform="matrix(1,0,0,1,447.4853588941651,698) translate(45.584635416666664 62.779079861111114)"/><path d="M180.98 869.8l243.2-107.23M181 869.8l-3.23 1.4" stroke="#666" fill="none"/><path d="M424.6 762.3l.24.52-.47.2-.4-.9.48-.22zM892.57 769.74l-3.97 2.72-.57-.82 3.97-2.72zm11.9-8.16l-7.93 5.44-.57-.82 7.95-5.44zm11.93-8.15l-7.94 5.43-.57-.82 7.94-5.44zm11.92-8.16l-7.95 5.44-.56-.82 7.95-5.44zm11.9-8.16l-7.93 5.45-.58-.83 7.95-5.44zm4-2.7l-.58-.84 1.48-1h1.77zm31.76-21.76l-1.82 1.24h-1.77l3.02-2.07zm11.92-8.16l-7.94 5.44-.57-.83 7.93-5.45zm11.92-8.16l-7.95 5.44-.56-.83 7.95-5.44zm11.9-8.16l-7.93 5.44-.58-.82 7.95-5.44zm11.93-8.16l-7.95 5.44-.56-.82 7.94-5.44zm7.94-5.43l-3.98 2.7-.56-.8 3.97-2.73z" fill="#666"/><path d="M1032.3 674.1l-.72.47-.56-.82.13-.1zM897.28 754.1l-8.1 17.35 19.12-1.27.06 1-20.8 1.38 8.8-18.9z" fill="#666"/><use xlink:href="#k" transform="matrix(1,0,0,1,914.2727918288617,713.8822467741896) translate(0 12.444444444444446)"/><path d="M199.75 319.75c0 10.9-8.84 19.75-19.75 19.75-10.9 0-19.75-8.84-19.75-19.75 0-10.9 8.84-19.75 19.75-19.75 10.9 0 19.75 8.84 19.75 19.75z" stroke="#666" fill="#fff"/><path d="M180 339.5v50.3c0 2.76 1.2 6.9 2.67 9.22L220 458m-40-63.2L140 458m0-98.75h80" stroke="#666" fill="none"/><path d="M140 305c0-2.76 2.24-5 5-5h70c2.76 0 5 2.24 5 5v170c0 2.76-2.24 5-5 5h-70c-2.76 0-5-2.24-5-5z" fill="none"/><use xlink:href="#n" transform="matrix(1,0,0,1,60,458) translate(74.30555555555554 15.777777777777775)"/><path d="M960.5 1250.13c0 38.66-40.3 70-90 70-49.72 0-90-31.34-90-70s40.28-70 90-70c49.7 0 90 31.34 90 70z" stroke="#fff" fill="#3278cc"/><use xlink:href="#o" transform="matrix(1,0,0,1,807.4853588941651,1208.1318283355386) translate(26.487413194444443 33.720920138888886)"/><use xlink:href="#p" transform="matrix(1,0,0,1,807.4853588941651,1208.1318283355386) translate(64.68185763888889 33.720920138888886)"/><use xlink:href="#q" transform="matrix(1,0,0,1,807.4853588941651,1208.1318283355386) translate(26.595920138888886 62.779079861111114)"/><path d="M818.24 1191.9l-.74.67-3.5-3.85.74-.67zm-7-7.7l-.74.67-7-7.7.74-.68zm-10.5-11.56l-.74.68-7-7.7.74-.68zm-10.5-11.55l-.74.66-7-7.7.74-.67zm-10.5-11.56l-.74.67-.7-.77h1.34zm-17.06-18.77h-.96l.52-.48zm-3.94-4.33l-.74.67-7-7.7.75-.66zm-10.5-11.55l-.73.66-7-7.7.75-.68zm-10.5-11.57l-.73.68-7-7.7.75-.67zm-10.5-11.55l-.73.67-3.5-3.85.75-.67z" fill="#666"/><path d="M818.66 1192.36l-.9.48-.27-.28.73-.67zM742.7 1093.74l-.3.95-18.3-5.65 3.86 18.76-.98.2-4.2-20.4z" fill="#666"/><use xlink:href="#k" transform="matrix(1,0,0,1,725.1149885237946,1130.7655379183207) translate(0 12.444444444444446)"/><path d="M760.5 1250.13c0 38.66-40.3 70-90 70-49.72 0-90-31.34-90-70s40.28-70 90-70c49.7 0 90 31.34 90 70z" stroke="#fff" fill="#3278cc"/><use xlink:href="#o" transform="matrix(1,0,0,1,607.4853588941651,1208.1318283355386) translate(26.487413194444443 33.720920138888886)"/><use xlink:href="#p" transform="matrix(1,0,0,1,607.4853588941651,1208.1318283355386) translate(64.68185763888889 33.720920138888886)"/><use xlink:href="#r" transform="matrix(1,0,0,1,607.4853588941651,1208.1318283355386) translate(10.162543402777771 62.779079861111114)"/><path d="M671 1179.13h-1v-5.18h1zm0-10.35h-1v-10.36h1zm0-31.8h-1v-9.62h1zm0-14.8h-1v-10.35h1zm0-15.53h-1v-5.17h1zM671 1179.65l-.5-.02h-.5v-.5h1z" fill="#666"/><path d="M681.1 1118.5l-.86.52-9.75-16.5-9.77 16.5-.86-.5 10.62-17.95z" fill="#666"/><use xlink:href="#k" transform="matrix(1,0,0,1,625.1149885237946,1136.9869782924254) translate(0 12.444444444444446)"/><path d="M600.5 590c0 38.66-40.3 70-90 70-49.72 0-90-31.34-90-70s40.28-70 90-70c49.7 0 90 31.34 90 70z" stroke="#fff" fill="#3278cc"/><use xlink:href="#s" transform="matrix(1,0,0,1,447.4853588941651,548) translate(9.462673611111114 20.77907986111111)"/><use xlink:href="#t" transform="matrix(1,0,0,1,447.4853588941651,548) translate(72.9609375 20.77907986111111)"/><use xlink:href="#u" transform="matrix(1,0,0,1,447.4853588941651,548) translate(5.583550347222221 49.83723958333333)"/><use xlink:href="#v" transform="matrix(1,0,0,1,447.4853588941651,548) translate(84.65256076388889 49.83723958333333)"/><use xlink:href="#w" transform="matrix(1,0,0,1,447.4853588941651,548) translate(20.31879340277777 78.89539930555556)"/><path d="M740 310c0 38.66-40.3 70-90 70s-90-31.34-90-70 40.3-70 90-70 90 31.34 90 70z" stroke="#666" fill="#3278cc"/><use xlink:href="#x" transform="matrix(1,0,0,1,587,268) translate(21.111436631944443 32.89301215277778)"/><use xlink:href="#y" transform="matrix(1,0,0,1,587,268) translate(20.789171006944443 64.85698784722223)"/><use xlink:href="#z" transform="matrix(1,0,0,1,587,268) translate(66.89702690972223 64.85698784722223)"/><path d="M180 389.9l379-79.8M180.02 389.9l-3.44.72" stroke="#666" fill="none"/><path d="M559.5 310v.5l-.4.1-.2-.98.6-.13z" fill="#666"/><path d="M179.88 869.66l255.58-239.5M179.9 869.65l-2.57 2.4" stroke="#666" fill="none"/><path d="M436.15 630.2l-.35.35-.7-.73.4-.37z" fill="#666"/><path d="M740 470c0 38.66-40.3 70-90 70s-90-31.34-90-70 40.3-70 90-70 90 31.34 90 70z" stroke="#666" fill="#3278cc"/><use xlink:href="#A" transform="matrix(1,0,0,1,587,428) translate(10.580295138888893 33.720920138888886)"/><use xlink:href="#B" transform="matrix(1,0,0,1,587,428) translate(24.62651909722222 62.779079861111114)"/><use xlink:href="#e" transform="matrix(1,0,0,1,587,428) translate(66.54275173611111 62.779079861111114)"/><path d="M180 390.1l379 79.8M180.02 390.1l-3.44-.72" stroke="#666" fill="none"/><path d="M559.5 469.5v1l-.6-.12.2-.97z" fill="#666"/><path d="M1160 610c0 38.66-40.3 70-90 70s-90-31.34-90-70 40.3-70 90-70 90 31.34 90 70z" stroke="#fff" fill="#3278cc"/><use xlink:href="#g" transform="matrix(1,0,0,1,1007,568) translate(26.73697916666667 20.77907986111111)"/><use xlink:href="#C" transform="matrix(1,0,0,1,1007,568) translate(-9.726779513888886 49.83723958333333)"/><use xlink:href="#i" transform="matrix(1,0,0,1,1007,568) translate(36.87152777777778 78.89539930555556)"/><path d="M413.53 1304.9" stroke="#666" fill="none"/><path fill="#666"/><path fill="#666"/><path d="M1020 390c0 38.66-40.3 70-90 70s-90-31.34-90-70 40.3-70 90-70 90 31.34 90 70z" stroke="#666" fill="#3278cc"/><use xlink:href="#D" transform="matrix(1,0,0,1,867,348) translate(34.00151909722222 20.77907986111111)"/><use xlink:href="#E" transform="matrix(1,0,0,1,867,348) translate(-3.064453125 49.83723958333333)"/><use xlink:href="#F" transform="matrix(1,0,0,1,867,348) translate(11.388671875 78.89539930555556)"/><path d="M601.47 866.28l-4.73 1.26-.25-.96 4.72-1.26zm14.2-3.78l-9.47 2.52-.25-.96 9.46-2.52zm4.73-1.25l-.26-.97 3.55-.95h3.87zm80.42-21.42l-3.16.84h-3.88l6.78-1.8zm14.2-3.78l-9.47 2.52-.26-.97 9.45-2.52zm9.45-2.52l-4.73 1.26-.26-.98 4.73-1.26z" fill="#666"/><path d="M596.76 867.54l-.42.1-.42-.9.58-.17zM725.22 832.8l-14.6 14.88-.72-.7 13.42-13.66-18.44-5.18.27-.97z" fill="#666"/><g><use xlink:href="#l" transform="matrix(1,0,0,1,614.0530623805004,840.6666666666666) translate(0 12.444444444444446)"/></g><path d="M723.4 789.1l-.24.97-4.65-1.08.24-.98zm-9.3-2.17l-.24.98-9.3-2.16.22-.98zm-14.2-2.28l-1.38-.32h1.46zm-77.07-18.98h-1.88l.1-.42zm-6.43-1.5l-.23.97-9.3-2.17.23-.97zm-13.96-3.25l-.22.97-4.65-1.1.22-.97z" fill="#666"/><path d="M597.8 759.84l-.22.97-.57-.12.37-.95zM724.16 789.8l-19.88 6.26-.3-.96 18.27-5.75-13.85-13.24.7-.7z" fill="#666"/><g><use xlink:href="#l" transform="matrix(1,0,0,1,614.0530623805004,765.6666666666666) translate(0 12.444444444444446)"/></g><path d="M739.07 765.78l-.7.73-3.53-3.36.68-.72zm-7.1-6.73l-.68.72-7.1-6.74.7-.72zm-10.62-10.1l-.7.72-7.07-6.74.68-.73zm-10.63-10.1l-.7.7-7.07-6.73.68-.72zm-10.63-10.12l-.7.72-7.08-6.73.68-.73zm-10.64-10.1l-.7.72-7.07-6.74.67-.7zm-10.63-10.1l-.7.7-4.58-4.35H675zm-23.46-22.32h-1.45l-4.13-3.9.68-.73zm-8.43-8l-.7.73-7.08-6.74.7-.74zm-10.63-10.1l-.68.72-7.1-6.74.7-.72zM625.7 658l-.7.7-7.08-6.72.7-.73zm-10.63-10.12l-.7.73-7.08-6.73.7-.72zm-10.63-10.1l-.7.72-7.08-6.74.7-.72zm-10.63-10.1l-.7.72-3.54-3.37.7-.73zM590.26 624.3l-.7.74-.32-.32.6-.8z" fill="#666"/><path d="M739.38 766.77l-20.3-4.67.2-.97 18.68 4.3-5.23-18.44.96-.28z" fill="#666"/><g><use xlink:href="#l" transform="matrix(1,0,0,1,617.8376297263441,686.213340610744) translate(0 12.444444444444446)"/></g><path d="M1029.97 546.16l-.85.54-2.8-4.4.84-.54zm-5.6-8.8l-.85.53-5.6-8.82.83-.54zm-8.42-13.23l-.84.54-5.6-8.8.84-.55zm-8.4-13.2l-.85.52-1.35-2.12h1.18zm-12.9-20.26h-1.18l-.8-1.24.85-.54zm-3.93-6.18l-.84.52-5.6-8.8.83-.55zm-8.4-13.23l-.85.54-5.6-8.8.83-.54zm-8.42-13.22l-.84.54-2.8-4.42.84-.53z" fill="#666"/><path d="M1030.3 546.66l-.96.38-.22-.35.84-.55zM988.77 462.6l-.45.88-17.08-8.67.63 19.15-1 .03-.68-20.83z" fill="#666"/><g><use xlink:href="#k" transform="matrix(1,0,0,1,954.6296296296296,490.6666666666667) translate(0 12.444444444444446)"/></g><path d="M745.68 468.36l-4.53 1.9-.38-.9 4.53-1.92zm13.6-5.72l-9.07 3.8-.37-.9 9.06-3.82zm13.58-5.72l-9.06 3.8-.4-.9 8.64-3.64h.5zm54.36-22.88l-8.25 3.48H818l-.23-.6 9.06-3.8zm13.6-5.72l-9.07 3.82-.4-.92 9.07-3.82zm9.05-3.8l-4.53 1.9-.4-.92 4.54-1.9z" fill="#666"/><path d="M741.17 470.26l-.7.3.03-.55v-.54l.28-.12zM850.5 423.7l-10.24 13.82H839l9.7-13.06-18.98-2.6.14-.98z" fill="#666"/><g><use xlink:href="#l" transform="matrix(1,0,0,1,748.8812219706846,437.51532859436895) translate(0 12.444444444444446)"/></g><path d="M844.28 365l-.28.95-4.52-1.3.27-.96zm-9.06-2.6l-.27.96-9.06-2.6.27-.95zm-13.86-2.92l-.5-.15h.55zm-62.2-18.8h-1l.08-.27zm-5.45-1.57l-.26.97-9.06-2.58.28-.97zm-13.57-3.87l-.27.96-4.53-1.3.27-.96z" fill="#666"/><path d="M735.6 333.94l-.26.96-.57-.16.1-.2.32-.72zM845.02 365.72L824.85 371l-.25-.97 18.53-4.85-6.5-6.87v-1.44z" fill="#666"/><g><use xlink:href="#l" transform="matrix(1,0,0,1,743.3765432098766,340.6666666666667) translate(0 12.444444444444446)"/></g><defs><path fill="#666" d="M29-66c0 49 71 55 82 11 13-52 22-111 33-165H93l5-28h85L149-74C151 11 7 37-1-60" id="G"/><path fill="#666" d="M30-147c31-64 166-65 159 27C183-49 158 1 86 4 9 8 1-88 30-147zM88-20c53 0 68-48 68-100 0-31-11-51-44-50-52 1-68 46-68 97 0 32 13 53 44 53" id="H"/><path fill="#666" d="M68-162c25-46 127-43 121 31C183-60 169 1 98 4 69 5 53-11 43-31L36 0H5l52-261h31zm88 36c2-27-9-43-34-43-55 0-70 51-70 103 0 29 15 45 43 46 52 0 58-58 61-106" id="I"/><path fill="#666" d="M187 0l-14-72H61L19 0h-37l149-248h38L221 0h-34zm-19-99l-22-123L76-99h92" id="J"/><path fill="#666" d="M133-28C103 26-5 8 13-77c13-62 24-115 90-117 29-1 46 15 56 35l19-102h32L160 0h-30zM45-64c-2 27 10 43 35 43 54-1 69-50 69-103 0-29-15-46-42-46-53-1-58 58-62 106" id="K"/><path fill="#666" d="M111-194c62-3 86 47 72 106H45c-7 38 6 69 45 68 27-1 43-14 53-32l24 11C152-15 129 4 87 4 38 3 12-23 12-71c0-70 32-119 99-123zm44 81c14-66-71-72-95-28-4 8-8 17-11 28h106" id="L"/><path fill="#666" d="M66-151c12-25 30-51 66-40l-6 26C45-176 58-65 38 0H6l36-190h30" id="M"/><g id="a"><use transform="matrix(0.04320987654320988,0,0,0.04320987654320988,0,0)" xlink:href="#G"/><use transform="matrix(0.04320987654320988,0,0,0.04320987654320988,7.777777777777779,0)" xlink:href="#H"/><use transform="matrix(0.04320987654320988,0,0,0.04320987654320988,16.419753086419753,0)" xlink:href="#I"/><use transform="matrix(0.04320987654320988,0,0,0.04320987654320988,25.061728395061728,0)" xlink:href="#J"/><use transform="matrix(0.04320987654320988,0,0,0.04320987654320988,35.4320987654321,0)" xlink:href="#K"/><use transform="matrix(0.04320987654320988,0,0,0.04320987654320988,44.074074074074076,0)" xlink:href="#K"/><use transform="matrix(0.04320987654320988,0,0,0.04320987654320988,52.71604938271606,0)" xlink:href="#L"/><use transform="matrix(0.04320987654320988,0,0,0.04320987654320988,61.35802469135802,0)" xlink:href="#M"/></g><path fill="#666" d="M62-99C39-31 123 0 170-40s38-139 58-208h34C234-144 253 4 115 4 49 4 18-43 31-112l26-136h34" id="N"/><path fill="#666" d="M55-144c13 50 104 24 104 88C159 21 15 23 1-39l26-10c6 40 102 42 102-4-13-50-104-23-104-87 0-71 143-71 148-8l-29 4c-5-35-85-37-89 0" id="O"/><g id="b"><use transform="matrix(0.04320987654320988,0,0,0.04320987654320988,0,0)" xlink:href="#N"/><use transform="matrix(0.04320987654320988,0,0,0.04320987654320988,11.19135802469136,0)" xlink:href="#O"/><use transform="matrix(0.04320987654320988,0,0,0.04320987654320988,18.96913580246914,0)" xlink:href="#L"/><use transform="matrix(0.04320987654320988,0,0,0.04320987654320988,27.611111111111114,0)" xlink:href="#M"/></g><path fill="#fff" d="M1311-479c1-20 2-33 24-33 18 0 27 12 27 35 0 130-50 250-150 359S984 45 827 45c-194 0-361-72-501-216S115-491 115-700c0-206 70-381 211-526s308-218 501-218c105 0 232 54 287 94 25 19 55 47 90 82l103-151c11-17 22-25 33-25 28 2 22 16 22 49v486c-3 41 6 49-33 49-31 0-29-6-33-35-39-283-225-540-550-474-97 20-211 91-272 165-86 106-151 298-148 506 5 361 138 602 422 668 302 70 550-158 563-449" id="P"/><path fill="#fff" d="M367-156c6 110 33 84 159 93V0C204-8 392-8 66 0v-63c127-9 159 17 159-93v-1065c-5-119-29-107-159-114v-64l294-22c1 237-3 479 2 712 45-96 146-196 295-196 159 0 249 67 269 184 25 149 0 419 10 596 4 76 61 55 160 62V0C774-8 960-8 635 0v-63c127-9 160 17 160-93v-477c-3-128-26-228-152-227-155 1-276 151-276 328v376" id="Q"/><path fill="#fff" d="M666-13C363 125 57-150 57-451c0-242 189-467 426-467 234 0 369 179 367 402 0 45-4 43-51 43H227c0 139 21 241 62 307C366-42 491 4 637-54c76-29 133-100 160-186 0-37 53-37 53-4-28 101-87 187-184 231zm49-503c-9-172-50-356-232-356-175 0-246 163-254 356h486" id="R"/><path fill="#fff" d="M650-3C347 112 70-153 70-442c0-247 197-476 444-476 148 0 313 77 313 220 0 58-39 96-94 96-56 0-95-40-94-94 0-57 39-90 96-95-49-51-122-76-219-75-69 0-133 33-190 98s-86 173-86 322c0 198 65 339 197 396 31 14 61 21 91 21 134 0 224-72 269-215 1-27 58-26 53 0C826-131 756-43 650-3" id="S"/><path fill="#fff" d="M346-156c6 110 33 84 160 93V0C291-8 318-8 57 0v-63c127-9 160 17 160-93v-1065c-5-120-29-107-160-114v-64l295-22v983l289-250c30-26 45-53 45-80 0-31-20-48-59-51v-64c82 6 275 10 372 0v64c-135 5-253 101-355 193-45 41-69 61-69 65 1 8 9 17 13 22l260 367c66 84 77 105 199 109V0C882-9 855-7 647 0v-63c49 0 74-16 74-48 20-7-173-272-244-368L346-367v211" id="T"/><g id="c"><use transform="matrix(0.010850694444444444,0,0,0.010850694444444444,0,0)" xlink:href="#P"/><use transform="matrix(0.010850694444444444,0,0,0.010850694444444444,16.03732638888889,0)" xlink:href="#Q"/><use transform="matrix(0.010850694444444444,0,0,0.010850694444444444,28.363715277777775,0)" xlink:href="#R"/><use transform="matrix(0.010850694444444444,0,0,0.010850694444444444,38.22699652777778,0)" xlink:href="#S"/><use transform="matrix(0.010850694444444444,0,0,0.010850694444444444,47.47178819444444,0)" xlink:href="#T"/></g><path fill="#fff" d="M225-631c-10-184 18-181-159-188v-64l301-22c2 252-10 512 4 757 3 46 30 95 75 110 209 70 349-102 349-302v-365c-5-119-30-107-160-114v-64l301-22v727c5 120 29 108 160 115V0L801 23v-185C744-39 656 23 537 23c-150 0-256-40-291-158-39-130-12-329-21-496" id="U"/><path fill="#fff" d="M90 23C63 23 68 5 68-27v-270c-8-42 16-61 46-45 4 4 5 14 9 29C162-148 223-27 408-23c138 3 231-62 231-186 0-100-72-159-213-188-144-30-186-29-270-95-60-47-88-106-88-174 0-163 130-252 327-252 77 0 141 19 193 58 24-17 51-58 76-58 27 0 22 18 22 50v206c0 33 2 50-27 50-15 0-23-6-24-19-11-165-91-248-240-248-135 0-229 49-229 156 0 130 137 144 252 168 109 23 187 53 233 98 58 57 86 122 86 195C737-85 607 23 408 23c-89 0-164-30-226-89-21 22-73 89-92 89" id="V"/><path fill="#fff" d="M551 0C444-9 194-6 57 0v-63c127-9 160 17 160-93v-549c-5-120-29-107-160-114v-64l285-22v225c37-105 111-225 252-225 79 0 149 53 151 125 1 55-40 89-88 90-50 0-89-36-88-88 1-37 23-70 47-80-187-18-264 195-264 383v315c6 102 34 90 156 97h43V0" id="W"/><g id="d"><use transform="matrix(0.010850694444444444,0,0,0.010850694444444444,0,0)" xlink:href="#U"/><use transform="matrix(0.010850694444444444,0,0,0.010850694444444444,12.32638888888889,0)" xlink:href="#V"/><use transform="matrix(0.010850694444444444,0,0,0.010850694444444444,21.07204861111111,0)" xlink:href="#R"/><use transform="matrix(0.010850694444444444,0,0,0.010850694444444444,30.93532986111111,0)" xlink:href="#W"/></g><path fill="#fff" d="M412 45C246 45 84-71 84-229c0-74 52-118 115-119 62-1 114 48 114 115 0 77-44 115-131 114C231-40 307 0 408 0c131 0 210-151 210-303v-934c-2-65-3-70-59-87-36-11-147-11-215-11v-64c88 7 455 9 608 0v64c-119 9-155-18-157 84-6 332 15 671-2 999C785-91 603 45 412 45" id="X"/><path fill="#fff" d="M510 23C271 23 57-192 57-438c0-248 207-480 455-480 245 0 453 231 453 480 0 246-212 461-455 461zM276-735c-65 102-57 469 3 569C356-38 519 16 652-70c114-73 143-179 143-385 0-131-20-225-54-284-73-125-221-171-361-99-43 23-76 59-104 103" id="Y"/><path fill="#fff" d="M217-1221c-5-119-30-107-160-114v-64l295-22v649c79-89 173-133 281-133 234 0 434 222 434 463 0 249-213 465-457 465-113 0-203-50-268-150C294-44 269-1 268 0h-51v-1221zm141 988c0 29 11 56 29 86C491 25 724 8 834-154c76-112 80-462 4-575-58-85-126-131-215-131-100 0-181 44-242 131-15 22-23 47-23 74v422" id="Z"/><g id="e"><use transform="matrix(0.010850694444444444,0,0,0.010850694444444444,0,0)" xlink:href="#X"/><use transform="matrix(0.010850694444444444,0,0,0.010850694444444444,11.393229166666666,0)" xlink:href="#Y"/><use transform="matrix(0.010850694444444444,0,0,0.010850694444444444,22.50434027777778,0)" xlink:href="#Z"/></g><path fill="#fff" d="M137 45c-27-2-22-17-22-49v-410c0-33-2-51 26-51 15 0 25 7 25 21 6 265 178 426 450 426 233 0 360-306 211-482-46-55-95-86-174-104-170-39-259-64-270-68-145-46-266-193-268-375-4-266 272-478 553-371 97 36 106 56 174 118l71-117c11-18 21-27 31-27 27 2 23 16 23 49v412c1 33 1 47-27 49-13 0-23-8-25-24-39-285-171-428-399-428-216 0-349 256-214 432 86 112 264 120 413 159 164 43 307 213 307 414 0 225-175 426-404 426-160 0-303-63-376-143-31 51-53 83-74 116-11 18-21 27-31 27" id="aa"/><path fill="#fff" d="M680-254c3 164-93 324-276 268-65-20-132-51-162-120-18-41-29-89-29-148v-565H39v-45c127-1 214-117 241-219 14-55 22-114 23-177h51v377h293v64H354v569c0 147 46 221 138 221 96 0 140-111 137-229v-113h51v117" id="ab"/><path fill="#fff" d="M682-156C644-59 547 24 414 23 298 21 211-4 144-66c-38-35-58-77-58-129 0-116 69-203 205-266 83-38 208-64 377-74v-75c7-148-90-262-217-262-100 0-174 31-222 94 69-2 103 39 105 94 2 54-38 94-94 94-55 0-95-38-95-96 0-142 158-237 310-232 195 6 354 115 354 355v409c0 46 27 102 76 103 49 0 73-44 73-131v-115h52v115c9 123-75 189-168 194-92 5-154-84-160-168zM428-23c129-4 240-110 240-264v-205c-151 5-260 38-326 98s-98 126-98 197c0 99 86 176 184 174" id="ac"/><g id="f"><use transform="matrix(0.010850694444444444,0,0,0.010850694444444444,0,0)" xlink:href="#aa"/><use transform="matrix(0.010850694444444444,0,0,0.010850694444444444,12.32638888888889,0)" xlink:href="#ab"/><use transform="matrix(0.010850694444444444,0,0,0.010850694444444444,20.94184027777778,0)" xlink:href="#ac"/><use transform="matrix(0.010850694444444444,0,0,0.010850694444444444,32.052951388888886,0)" xlink:href="#W"/><use transform="matrix(0.010850694444444444,0,0,0.010850694444444444,40.73350694444444,0)" xlink:href="#ab"/></g><path fill="#fff" d="M1448-688c0 358-279 688-627 688H72v-63h49c126-7 162 8 162-97v-1079c-6-103-38-89-162-96H72v-64h749c352-10 627 348 627 711zm-889-647c-89 4-100-1-100 82v1108c3 82 11 82 100 82 165 0 330 10 433-55 180-112 251-276 251-570 0-207-35-360-106-457-91-127-216-190-373-190H559" id="ad"/><path fill="#fff" d="M362-154c5 102 27 83 144 91V0C193-8 376-8 68 0v-63c127-9 159 17 159-93v-551c-4-117-26-105-151-112v-64l286-22v751zm-100-999c-59 0-108-52-108-109 0-54 52-108 108-108 59 0 109 47 109 108s-50 109-109 109" id="ae"/><path fill="#fff" d="M358 242c0 110 34 83 160 92v63c-326-8-138-8-461 0v-63c126-9 160 17 160-92v-959c-5-112-32-94-160-102v-64l295-22v135c82-90 178-135 287-135 232 0 428 223 428 463 0 249-213 465-457 465-112 0-225-80-252-144v363zM623-854c-125 0-215 75-265 164v457c1 54 3 44 29 86C439-62 512-21 602-23c176-3 295-216 295-419 0-193-105-412-274-412" id="af"/><path fill="#fff" d="M522 0C318-5 322-10 68 0v-63c127-9 159 17 159-93v-1065c-5-119-29-107-159-114v-64l294-22v1265c6 110 34 84 160 93V0" id="ag"/><path fill="#fff" d="M227 420c-97 2-188-72-188-166 0-53 37-88 86-88 49-1 86 36 86 86 0 51-27 79-80 86 57 54 150 46 207-8 72-68 78-107 123-209 18-41 36-81 51-121L205-748c-33-73-57-67-166-71v-64c160 9 227 7 422 0v64c-98 4-131 21-103 90l228 551 207-504c31-71 1-138-84-137v-64c163 7 202 9 331 0v64c-91 0-154 44-190 131L489 186c-65 155-153 232-262 234" id="ah"/><g id="g"><use transform="matrix(0.010850694444444444,0,0,0.010850694444444444,0,0)" xlink:href="#ad"/><use transform="matrix(0.010850694444444444,0,0,0.010850694444444444,16.94878472222222,0)" xlink:href="#ae"/><use transform="matrix(0.010850694444444444,0,0,0.010850694444444444,23.10112847222222,0)" xlink:href="#V"/><use transform="matrix(0.010850694444444444,0,0,0.010850694444444444,31.846788194444443,0)" xlink:href="#af"/><use transform="matrix(0.010850694444444444,0,0,0.010850694444444444,44.17317708333333,0)" xlink:href="#ag"/><use transform="matrix(0.010850694444444444,0,0,0.010850694444444444,50.32552083333333,0)" xlink:href="#ac"/><use transform="matrix(0.010850694444444444,0,0,0.010850694444444444,60.8181423611111,0)" xlink:href="#ah"/></g><path fill="#fff" d="M461-160c7 105 39 90 168 97h53V0C622-8 117-8 57 0v-63h54c129-8 168 9 168-97v-1079c-7-104-40-89-168-96H57v-64c59 8 565 8 625 0v64h-53c-129 8-168-9-168 96v1079" id="ai"/><path fill="#fff" d="M367-156c6 110 33 84 159 93V0C204-8 392-8 66 0v-63c127-9 159 17 159-93v-549c-5-119-29-107-159-114v-64l288-22v215c64-143 165-215 303-215 159 0 249 67 269 184 25 149 0 419 10 596 4 76 61 55 160 62V0C774-8 960-8 635 0v-63c127-9 160 17 160-93v-477c-3-128-26-228-152-227-155 1-276 151-276 328v376" id="aj"/><g id="h"><use transform="matrix(0.010850694444444444,0,0,0.010850694444444444,0,0)" xlink:href="#ai"/><use transform="matrix(0.010850694444444444,0,0,0.010850694444444444,8.018663194444445,0)" xlink:href="#aj"/><use transform="matrix(0.010850694444444444,0,0,0.010850694444444444,20.345052083333336,0)" xlink:href="#af"/><use transform="matrix(0.010850694444444444,0,0,0.010850694444444444,32.67144097222223,0)" xlink:href="#U"/><use transform="matrix(0.010850694444444444,0,0,0.010850694444444444,44.99782986111111,0)" xlink:href="#ab"/></g><path fill="#fff" d="M461-145c3 81 12 82 100 82 188 0 414 26 535-51 64-41 100-75 128-154 33-92 42-146 60-260h51L1249 0H68v-63h49c126-7 162 8 162-97v-1073c-6-103-38-89-162-96H68v-64h1153l57 461h-51c-21-195-54-326-213-376-112-35-306-21-453-21-89 0-100 0-100 82v491h184c194-5 215-46 221-239h52v542h-52c-6-190-28-235-221-239H461v547" id="ak"/><g id="i"><use transform="matrix(0.010850694444444444,0,0,0.010850694444444444,0,0)" xlink:href="#ak"/><use transform="matrix(0.010850694444444444,0,0,0.010850694444444444,15.104166666666666,0)" xlink:href="#W"/><use transform="matrix(0.010850694444444444,0,0,0.010850694444444444,23.78472222222222,0)" xlink:href="#W"/><use transform="matrix(0.010850694444444444,0,0,0.010850694444444444,32.46527777777778,0)" xlink:href="#Y"/><use transform="matrix(0.010850694444444444,0,0,0.010850694444444444,43.576388888888886,0)" xlink:href="#W"/></g><path fill="#fff" d="M1202-1192c36-91-44-144-139-143v-64c195 7 268 9 432 0v64c-115 1-189 47-223 137L815 6c-12 31-10 39-49 39-36 0-38-13-51-45L240-1257c-37-87-68-72-201-78v-64c243 9 402 7 553 0v64c-134 6-187 14-156 96L827-205" id="al"/><path fill="#fff" d="M70-63c127-9 159 17 159-93v-663H68v-64h161v-235c-11-186 150-323 318-326 94-2 183 60 184 144 0 53-35 90-90 90-52 0-88-39-88-88 0-44 20-73 61-86-157-62-256 102-256 264v237h240v64H365v659c6 102 34 91 155 97h43V0C457-9 207-6 70 0v-63" id="am"/><g id="j"><use transform="matrix(0.010850694444444444,0,0,0.010850694444444444,0,0)" xlink:href="#al"/><use transform="matrix(0.010850694444444444,0,0,0.010850694444444444,14.822048611111109,0)" xlink:href="#R"/><use transform="matrix(0.010850694444444444,0,0,0.010850694444444444,24.685329861111104,0)" xlink:href="#W"/><use transform="matrix(0.010850694444444444,0,0,0.010850694444444444,33.365885416666664,0)" xlink:href="#ae"/><use transform="matrix(0.010850694444444444,0,0,0.010850694444444444,39.518229166666664,0)" xlink:href="#am"/><use transform="matrix(0.010850694444444444,0,0,0.010850694444444444,46.2890625,0)" xlink:href="#ah"/></g><path fill="#666" d="M23-100v-36l175-74v27L47-118l151 64v27" id="an"/><path fill="#666" d="M124 0L87-78 21 0h-35l86-98-46-92h33l34 74 61-74h37l-83 92 50 98h-34" id="ao"/><path fill="#666" d="M51-54c-9 22 5 41 31 30L79-1C43 14 10-4 19-52l22-115H19l5-23h22l19-43h21l-9 43h35l-4 23H73" id="ap"/><path fill="#666" d="M67-158c22-48 132-52 116 29L158 0h-32l25-140c3-38-53-32-70-12C52-117 51-52 38 0H6l36-190h30" id="aq"/><path fill="#666" d="M23-27v-27l151-64-151-65v-27l175 74v36" id="ar"/><g id="k"><use transform="matrix(0.04320987654320988,0,0,0.04320987654320988,0,0)" xlink:href="#an"/><use transform="matrix(0.04320987654320988,0,0,0.04320987654320988,9.074074074074074,0)" xlink:href="#an"/><use transform="matrix(0.04320987654320988,0,0,0.04320987654320988,18.14814814814815,0)" xlink:href="#L"/><use transform="matrix(0.04320987654320988,0,0,0.04320987654320988,26.790123456790127,0)" xlink:href="#ao"/><use transform="matrix(0.04320987654320988,0,0,0.04320987654320988,34.567901234567906,0)" xlink:href="#ap"/><use transform="matrix(0.04320987654320988,0,0,0.04320987654320988,38.88888888888889,0)" xlink:href="#L"/><use transform="matrix(0.04320987654320988,0,0,0.04320987654320988,47.53086419753087,0)" xlink:href="#aq"/><use transform="matrix(0.04320987654320988,0,0,0.04320987654320988,56.17283950617284,0)" xlink:href="#K"/><use transform="matrix(0.04320987654320988,0,0,0.04320987654320988,64.81481481481482,0)" xlink:href="#O"/><use transform="matrix(0.04320987654320988,0,0,0.04320987654320988,72.59259259259261,0)" xlink:href="#ar"/><use transform="matrix(0.04320987654320988,0,0,0.04320987654320988,81.66666666666669,0)" xlink:href="#ar"/></g><path fill="#666" d="M50-231l6-30h32l-6 30H50zM6 0l37-190h31L37 0H6" id="as"/><path fill="#666" d="M44-68c0 29 11 47 38 47 30 0 42-19 51-41l28 9C148-21 126 4 82 4 31 4 10-29 12-85c3-77 74-140 146-93 12 8 15 23 18 40l-31 5c-1-22-13-36-36-36-52 0-65 49-65 101" id="at"/><path fill="#666" d="M6 0l50-261h32L37 0H6" id="au"/><path fill="#666" d="M67 3c-93-2-31-127-26-193h32L48-50c-3 39 53 32 70 12 30-34 30-101 43-152h32L157 0h-30c1-10 6-24 4-33-14 20-29 37-64 36" id="av"/><g id="l"><use transform="matrix(0.04320987654320988,0,0,0.04320987654320988,0,0)" xlink:href="#an"/><use transform="matrix(0.04320987654320988,0,0,0.04320987654320988,9.074074074074074,0)" xlink:href="#an"/><use transform="matrix(0.04320987654320988,0,0,0.04320987654320988,18.14814814814815,0)" xlink:href="#as"/><use transform="matrix(0.04320987654320988,0,0,0.04320987654320988,21.561728395061728,0)" xlink:href="#aq"/><use transform="matrix(0.04320987654320988,0,0,0.04320987654320988,30.203703703703702,0)" xlink:href="#at"/><use transform="matrix(0.04320987654320988,0,0,0.04320987654320988,37.98148148148148,0)" xlink:href="#au"/><use transform="matrix(0.04320987654320988,0,0,0.04320987654320988,41.39506172839506,0)" xlink:href="#av"/><use transform="matrix(0.04320987654320988,0,0,0.04320987654320988,50.037037037037045,0)" xlink:href="#K"/><use transform="matrix(0.04320987654320988,0,0,0.04320987654320988,58.679012345679006,0)" xlink:href="#L"/><use transform="matrix(0.04320987654320988,0,0,0.04320987654320988,67.32098765432099,0)" xlink:href="#O"/><use transform="matrix(0.04320987654320988,0,0,0.04320987654320988,75.09876543209876,0)" xlink:href="#ar"/><use transform="matrix(0.04320987654320988,0,0,0.04320987654320988,84.17283950617283,0)" xlink:href="#ar"/></g><path fill="#fff" d="M459-160c6 103 37 90 162 97h49V0C603-8 139-8 72 0v-63h49c126-7 162 8 162-97v-1079c-6-103-38-89-162-96H72v-64h643c149 0 274 38 379 109 176 119 213 323 54 465-67 60-153 103-257 129 135 47 224 124 250 237 30 128 30 276 73 385 15 39 40 80 99 74 86-8 128-77 135-182 1-22 11-33 25-33 17 0 26 11 26 33 0 124-63 225-194 227-181 2-323-87-339-257-5-63-3-252-16-293-29-92-131-173-256-173H459v518zm227-563c226 3 352-91 352-307 0-246-162-305-413-305-67 0-107 1-121 4-42 5-46 29-45 78v530h227" id="aw"/><path fill="#fff" d="M367-156c6 110 33 84 159 93V0C204-8 392-8 66 0v-63c127-9 159 17 159-93v-549c-5-119-29-107-159-114v-64l288-22v215c64-143 165-215 303-215 160 0 251 67 273 200 47-100 144-200 297-200 159 0 250 67 269 184 24 150-1 419 9 596 4 76 61 55 160 62V0c-322-8-134-8-461 0v-63c127-9 160 17 160-93v-477c-3-128-26-228-152-227-155 1-276 151-276 328v376c6 110 33 84 160 93V0C774-8 960-8 635 0v-63c127-9 160 17 160-93v-477c-3-128-26-228-152-227-155 1-276 151-276 328v376" id="ax"/><path fill="#fff" d="M795-682c33-73-7-137-86-137v-64c125 7 221 9 331 0v64c-102 4-157 60-188 137L584-16c-13 36-39 49-68 32-5-5-11-16-18-32L203-743c-35-78-46-72-164-76v-64c174 9 198 7 422 0v64c-98 2-132 22-105 88l230 571" id="ay"/><g id="m"><use transform="matrix(0.010850694444444444,0,0,0.010850694444444444,0,0)" xlink:href="#aw"/><use transform="matrix(0.010850694444444444,0,0,0.010850694444444444,16.35199652777778,0)" xlink:href="#R"/><use transform="matrix(0.010850694444444444,0,0,0.010850694444444444,26.21527777777778,0)" xlink:href="#ax"/><use transform="matrix(0.010850694444444444,0,0,0.010850694444444444,44.71571180555556,0)" xlink:href="#Y"/><use transform="matrix(0.010850694444444444,0,0,0.010850694444444444,55.20833333333333,0)" xlink:href="#ay"/><use transform="matrix(0.010850694444444444,0,0,0.010850694444444444,66.29774305555554,0)" xlink:href="#R"/></g><path fill="#666" d="M248-111c6-24 9-61-24-58-72 9-57 108-77 169h-31l26-142c3-37-50-30-64-10C52-115 50-51 37 0H6l36-190h30c-1 10-6 24-4 32 13-43 101-52 105 5 13-22 29-41 61-41 90 0 28 129 23 194h-31" id="az"/><path fill="#666" d="M165-48c-4 18 1 34 23 27l-3 20c-29 8-62 0-52-35h-2C116-14 99 4 63 4 30 4 8-16 8-49c0-68 71-67 138-67 10-26 0-56-31-54-26 1-42 9-47 31l-32-5c8-67 160-71 144 15-5 28-9 54-15 81zM42-50c3 52 80 24 89-6 7-12 7-24 11-38-47 1-103-4-100 44" id="aA"/><g id="n"><use transform="matrix(0.04320987654320988,0,0,0.04320987654320988,0,0)" xlink:href="#J"/><use transform="matrix(0.04320987654320988,0,0,0.04320987654320988,10.370370370370372,0)" xlink:href="#K"/><use transform="matrix(0.04320987654320988,0,0,0.04320987654320988,19.01234567901235,0)" xlink:href="#az"/><use transform="matrix(0.04320987654320988,0,0,0.04320987654320988,31.9320987654321,0)" xlink:href="#as"/><use transform="matrix(0.04320987654320988,0,0,0.04320987654320988,35.345679012345684,0)" xlink:href="#aq"/><use transform="matrix(0.04320987654320988,0,0,0.04320987654320988,43.98765432098766,0)" xlink:href="#as"/><use transform="matrix(0.04320987654320988,0,0,0.04320987654320988,47.40123456790124,0)" xlink:href="#O"/><use transform="matrix(0.04320987654320988,0,0,0.04320987654320988,55.17901234567902,0)" xlink:href="#ap"/><use transform="matrix(0.04320987654320988,0,0,0.04320987654320988,59.50000000000001,0)" xlink:href="#M"/><use transform="matrix(0.04320987654320988,0,0,0.04320987654320988,64.64197530864199,0)" xlink:href="#aA"/><use transform="matrix(0.04320987654320988,0,0,0.04320987654320988,73.28395061728396,0)" xlink:href="#ap"/><use transform="matrix(0.04320987654320988,0,0,0.04320987654320988,77.60493827160495,0)" xlink:href="#H"/><use transform="matrix(0.04320987654320988,0,0,0.04320987654320988,86.24691358024693,0)" xlink:href="#M"/></g><g id="o"><use transform="matrix(0.010850694444444444,0,0,0.010850694444444444,0,0)" xlink:href="#aa"/><use transform="matrix(0.010850694444444444,0,0,0.010850694444444444,12.32638888888889,0)" xlink:href="#R"/><use transform="matrix(0.010850694444444444,0,0,0.010850694444444444,22.18967013888889,0)" xlink:href="#ab"/></g><g id="p"><use transform="matrix(0.010850694444444444,0,0,0.010850694444444444,0,0)" xlink:href="#X"/><use transform="matrix(0.010850694444444444,0,0,0.010850694444444444,11.393229166666666,0)" xlink:href="#Y"/><use transform="matrix(0.010850694444444444,0,0,0.010850694444444444,22.50434027777778,0)" xlink:href="#Z"/></g><g id="q"><use transform="matrix(0.010850694444444444,0,0,0.010850694444444444,0,0)" xlink:href="#af"/><use transform="matrix(0.010850694444444444,0,0,0.010850694444444444,12.32638888888889,0)" xlink:href="#W"/><use transform="matrix(0.010850694444444444,0,0,0.010850694444444444,21.006944444444443,0)" xlink:href="#ae"/><use transform="matrix(0.010850694444444444,0,0,0.010850694444444444,27.159288194444443,0)" xlink:href="#Y"/><use transform="matrix(0.010850694444444444,0,0,0.010850694444444444,38.27039930555556,0)" xlink:href="#W"/><use transform="matrix(0.010850694444444444,0,0,0.010850694444444444,46.95095486111111,0)" xlink:href="#ae"/><use transform="matrix(0.010850694444444444,0,0,0.010850694444444444,53.10329861111112,0)" xlink:href="#ab"/><use transform="matrix(0.010850694444444444,0,0,0.010850694444444444,61.10026041666667,0)" xlink:href="#ah"/></g><g id="r"><use transform="matrix(0.010850694444444444,0,0,0.010850694444444444,0,0)" xlink:href="#S"/><use transform="matrix(0.010850694444444444,0,0,0.010850694444444444,9.86328125,0)" xlink:href="#Y"/><use transform="matrix(0.010850694444444444,0,0,0.010850694444444444,20.97439236111111,0)" xlink:href="#aj"/><use transform="matrix(0.010850694444444444,0,0,0.010850694444444444,33.30078125,0)" xlink:href="#V"/><use transform="matrix(0.010850694444444444,0,0,0.010850694444444444,42.04644097222222,0)" xlink:href="#ab"/><use transform="matrix(0.010850694444444444,0,0,0.010850694444444444,50.66189236111112,0)" xlink:href="#W"/><use transform="matrix(0.010850694444444444,0,0,0.010850694444444444,59.34244791666667,0)" xlink:href="#ac"/><use transform="matrix(0.010850694444444444,0,0,0.010850694444444444,70.45355902777779,0)" xlink:href="#ae"/><use transform="matrix(0.010850694444444444,0,0,0.010850694444444444,76.60590277777779,0)" xlink:href="#aj"/><use transform="matrix(0.010850694444444444,0,0,0.010850694444444444,88.31380208333334,0)" xlink:href="#ab"/><use transform="matrix(0.010850694444444444,0,0,0.010850694444444444,96.92925347222221,0)" xlink:href="#V"/></g><path fill="#fff" d="M1208-678c36-80-25-143-108-141v-64c137 7 223 9 340 0v64c-85 3-142 46-172 131L1028-16c-26 50-63 54-82 0L737-598 530-18c-11 28-8 41-40 41s-34-18-44-46L188-748c-30-70-47-68-151-71v-64c196 9 177 7 414 0v64c-102 2-136 23-111 92l195 547 176-496c-25-67-40-104-47-112-17-21-60-31-129-31v-64c173 9 175 7 395 0v64c-103 3-137 22-111 94l203 571" id="aB"/><g id="s"><use transform="matrix(0.010850694444444444,0,0,0.010850694444444444,0,0)" xlink:href="#al"/><use transform="matrix(0.010850694444444444,0,0,0.010850694444444444,16.666666666666664,0)" xlink:href="#ae"/><use transform="matrix(0.010850694444444444,0,0,0.010850694444444444,22.819010416666664,0)" xlink:href="#R"/><use transform="matrix(0.010850694444444444,0,0,0.010850694444444444,32.682291666666664,0)" xlink:href="#aB"/></g><g id="t"><use transform="matrix(0.010850694444444444,0,0,0.010850694444444444,0,0)" xlink:href="#X"/><use transform="matrix(0.010850694444444444,0,0,0.010850694444444444,11.393229166666666,0)" xlink:href="#Y"/><use transform="matrix(0.010850694444444444,0,0,0.010850694444444444,22.50434027777778,0)" xlink:href="#Z"/><use transform="matrix(0.010850694444444444,0,0,0.010850694444444444,34.83072916666667,0)" xlink:href="#V"/></g><path fill="#fff" d="M461-160c6 103 37 90 162 97h49V0C610-8 131-8 68 0v-63h49c126-7 162 8 162-97v-1079c-6-103-38-89-162-96H68v-64c62 8 541 8 604 0v64h-49c-125 7-162-8-162 96v479h612v-479c-6-103-37-89-162-96h-49v-64c62 8 541 8 604 0v64h-49c-125 7-162-8-162 96v1079c6 103 38 90 162 97h49V0c-62-8-541-8-604 0v-63h49c126-7 162 8 162-97v-536H461v536" id="aC"/><g id="u"><use transform="matrix(0.010850694444444444,0,0,0.010850694444444444,0,0)" xlink:href="#aC"/><use transform="matrix(0.010850694444444444,0,0,0.010850694444444444,16.666666666666664,0)" xlink:href="#ae"/><use transform="matrix(0.010850694444444444,0,0,0.010850694444444444,22.819010416666664,0)" xlink:href="#V"/><use transform="matrix(0.010850694444444444,0,0,0.010850694444444444,31.56467013888889,0)" xlink:href="#ab"/><use transform="matrix(0.010850694444444444,0,0,0.010850694444444444,40.18012152777777,0)" xlink:href="#Y"/><use transform="matrix(0.010850694444444444,0,0,0.010850694444444444,51.291232638888886,0)" xlink:href="#W"/><use transform="matrix(0.010850694444444444,0,0,0.010850694444444444,59.97178819444444,0)" xlink:href="#ah"/></g><path fill="#fff" d="M504 23C270 28 70-199 70-440c0-247 215-465 456-465 104 0 190 42 258 127v-443c-5-119-29-107-159-114v-64l295-22v1243c5 119 29 108 159 115V0L778 23v-136C707-23 616 21 504 23zM303-729c-75 112-76 460-4 575C412 27 654 12 756-166c14-24 22-49 22-76v-420c0-27-7-52-22-75-105-169-343-156-453 8" id="aD"/><g id="v"><use transform="matrix(0.010850694444444444,0,0,0.010850694444444444,0,0)" xlink:href="#ac"/><use transform="matrix(0.010850694444444444,0,0,0.010850694444444444,11.11111111111111,0)" xlink:href="#aj"/><use transform="matrix(0.010850694444444444,0,0,0.010850694444444444,23.4375,0)" xlink:href="#aD"/></g><g id="w"><use transform="matrix(0.010850694444444444,0,0,0.010850694444444444,0,0)" xlink:href="#V"/><use transform="matrix(0.010850694444444444,0,0,0.010850694444444444,8.745659722222221,0)" xlink:href="#ab"/><use transform="matrix(0.010850694444444444,0,0,0.010850694444444444,17.36111111111111,0)" xlink:href="#ac"/><use transform="matrix(0.010850694444444444,0,0,0.010850694444444444,28.47222222222222,0)" xlink:href="#ab"/><use transform="matrix(0.010850694444444444,0,0,0.010850694444444444,37.087673611111114,0)" xlink:href="#ae"/><use transform="matrix(0.010850694444444444,0,0,0.010850694444444444,43.240017361111114,0)" xlink:href="#V"/><use transform="matrix(0.010850694444444444,0,0,0.010850694444444444,51.98567708333333,0)" xlink:href="#ab"/><use transform="matrix(0.010850694444444444,0,0,0.010850694444444444,60.60112847222223,0)" xlink:href="#ae"/><use transform="matrix(0.010850694444444444,0,0,0.010850694444444444,66.75347222222223,0)" xlink:href="#S"/><use transform="matrix(0.010850694444444444,0,0,0.010850694444444444,76.61675347222223,0)" xlink:href="#V"/></g><g id="x"><use transform="matrix(0.01193576388888889,0,0,0.01193576388888889,0,0)" xlink:href="#aw"/><use transform="matrix(0.01193576388888889,0,0,0.01193576388888889,17.987196180555557,0)" xlink:href="#R"/><use transform="matrix(0.01193576388888889,0,0,0.01193576388888889,28.836805555555557,0)" xlink:href="#ax"/><use transform="matrix(0.01193576388888889,0,0,0.01193576388888889,49.187282986111114,0)" xlink:href="#Y"/><use transform="matrix(0.01193576388888889,0,0,0.01193576388888889,60.72916666666667,0)" xlink:href="#ay"/><use transform="matrix(0.01193576388888889,0,0,0.01193576388888889,72.92751736111111,0)" xlink:href="#R"/></g><g id="y"><use transform="matrix(0.01193576388888889,0,0,0.01193576388888889,0,0)" xlink:href="#ac"/><use transform="matrix(0.01193576388888889,0,0,0.01193576388888889,12.222222222222223,0)" xlink:href="#aj"/><use transform="matrix(0.01193576388888889,0,0,0.01193576388888889,25.100911458333336,0)" xlink:href="#ah"/></g><g id="z"><use transform="matrix(0.01193576388888889,0,0,0.01193576388888889,0,0)" xlink:href="#X"/><use transform="matrix(0.01193576388888889,0,0,0.01193576388888889,12.532552083333334,0)" xlink:href="#Y"/><use transform="matrix(0.01193576388888889,0,0,0.01193576388888889,24.754774305555557,0)" xlink:href="#Z"/></g><path fill="#fff" d="M848-1481c9-19 12-48 37-51 24 4 23 23 14 51L174 453c-15 34-11 49-39 55-24-3-19-33-10-57" id="aE"/><g id="A"><use transform="matrix(0.010850694444444444,0,0,0.010850694444444444,0,0)" xlink:href="#aa"/><use transform="matrix(0.010850694444444444,0,0,0.010850694444444444,12.32638888888889,0)" xlink:href="#ab"/><use transform="matrix(0.010850694444444444,0,0,0.010850694444444444,20.94184027777778,0)" xlink:href="#ac"/><use transform="matrix(0.010850694444444444,0,0,0.010850694444444444,32.052951388888886,0)" xlink:href="#W"/><use transform="matrix(0.010850694444444444,0,0,0.010850694444444444,40.73350694444444,0)" xlink:href="#ab"/><use transform="matrix(0.010850694444444444,0,0,0.010850694444444444,49.34895833333333,0)" xlink:href="#aE"/><use transform="matrix(0.010850694444444444,0,0,0.010850694444444444,60.46006944444444,0)" xlink:href="#aa"/><use transform="matrix(0.010850694444444444,0,0,0.010850694444444444,72.78645833333333,0)" xlink:href="#ab"/><use transform="matrix(0.010850694444444444,0,0,0.010850694444444444,81.40190972222221,0)" xlink:href="#Y"/><use transform="matrix(0.010850694444444444,0,0,0.010850694444444444,92.51302083333333,0)" xlink:href="#af"/></g><g id="B"><use transform="matrix(0.010850694444444444,0,0,0.010850694444444444,0,0)" xlink:href="#ac"/><use transform="matrix(0.010850694444444444,0,0,0.010850694444444444,11.11111111111111,0)" xlink:href="#aj"/><use transform="matrix(0.010850694444444444,0,0,0.010850694444444444,22.819010416666664,0)" xlink:href="#ah"/></g><path fill="#fff" d="M360-199c-20 90 57 139 150 136V0C244-7 301-9 66 0v-63c121-3 198-49 229-138l424-1224c8-37 28-45 69-39 17 9 20 18 27 39l442 1280c24 89 88 79 211 82V0c-140-8-465-8-563 0v-63c129-6 190-16 164-91L961-467H455zm117-331h461l-231-666" id="aF"/><g id="C"><use transform="matrix(0.010850694444444444,0,0,0.010850694444444444,0,0)" xlink:href="#aF"/><use transform="matrix(0.010850694444444444,0,0,0.010850694444444444,16.666666666666664,0)" xlink:href="#U"/><use transform="matrix(0.010850694444444444,0,0,0.010850694444444444,28.993055555555554,0)" xlink:href="#ab"/><use transform="matrix(0.010850694444444444,0,0,0.010850694444444444,37.60850694444444,0)" xlink:href="#Q"/><use transform="matrix(0.010850694444444444,0,0,0.010850694444444444,49.93489583333333,0)" xlink:href="#R"/><use transform="matrix(0.010850694444444444,0,0,0.010850694444444444,59.79817708333333,0)" xlink:href="#aj"/><use transform="matrix(0.010850694444444444,0,0,0.010850694444444444,71.50607638888889,0)" xlink:href="#ab"/><use transform="matrix(0.010850694444444444,0,0,0.010850694444444444,80.12152777777777,0)" xlink:href="#ae"/><use transform="matrix(0.010850694444444444,0,0,0.010850694444444444,86.27387152777777,0)" xlink:href="#S"/><use transform="matrix(0.010850694444444444,0,0,0.010850694444444444,96.13715277777777,0)" xlink:href="#ac"/><use transform="matrix(0.010850694444444444,0,0,0.010850694444444444,107.24826388888889,0)" xlink:href="#ab"/><use transform="matrix(0.010850694444444444,0,0,0.010850694444444444,115.86371527777777,0)" xlink:href="#ae"/><use transform="matrix(0.010850694444444444,0,0,0.010850694444444444,122.01605902777777,0)" xlink:href="#Y"/><use transform="matrix(0.010850694444444444,0,0,0.010850694444444444,133.12717013888889,0)" xlink:href="#aj"/></g><g id="D"><use transform="matrix(0.010850694444444444,0,0,0.010850694444444444,0,0)" xlink:href="#al"/><use transform="matrix(0.010850694444444444,0,0,0.010850694444444444,14.822048611111109,0)" xlink:href="#R"/><use transform="matrix(0.010850694444444444,0,0,0.010850694444444444,24.685329861111104,0)" xlink:href="#W"/><use transform="matrix(0.010850694444444444,0,0,0.010850694444444444,33.365885416666664,0)" xlink:href="#ae"/><use transform="matrix(0.010850694444444444,0,0,0.010850694444444444,39.518229166666664,0)" xlink:href="#am"/><use transform="matrix(0.010850694444444444,0,0,0.010850694444444444,46.2890625,0)" xlink:href="#ah"/></g><g id="E"><use transform="matrix(0.010850694444444444,0,0,0.010850694444444444,0,0)" xlink:href="#ac"/><use transform="matrix(0.010850694444444444,0,0,0.010850694444444444,11.11111111111111,0)" xlink:href="#aD"/><use transform="matrix(0.010850694444444444,0,0,0.010850694444444444,23.4375,0)" xlink:href="#ax"/><use transform="matrix(0.010850694444444444,0,0,0.010850694444444444,41.93793402777778,0)" xlink:href="#ae"/><use transform="matrix(0.010850694444444444,0,0,0.010850694444444444,48.09027777777778,0)" xlink:href="#aj"/><use transform="matrix(0.010850694444444444,0,0,0.010850694444444444,60.41666666666667,0)" xlink:href="#ae"/><use transform="matrix(0.010850694444444444,0,0,0.010850694444444444,66.56901041666667,0)" xlink:href="#V"/><use transform="matrix(0.010850694444444444,0,0,0.010850694444444444,75.31467013888889,0)" xlink:href="#ab"/><use transform="matrix(0.010850694444444444,0,0,0.010850694444444444,83.93012152777777,0)" xlink:href="#W"/><use transform="matrix(0.010850694444444444,0,0,0.010850694444444444,92.61067708333333,0)" xlink:href="#ac"/><use transform="matrix(0.010850694444444444,0,0,0.010850694444444444,103.72178819444444,0)" xlink:href="#ab"/><use transform="matrix(0.010850694444444444,0,0,0.010850694444444444,112.33723958333333,0)" xlink:href="#Y"/><use transform="matrix(0.010850694444444444,0,0,0.010850694444444444,123.44835069444444,0)" xlink:href="#W"/></g><g id="F"><use transform="matrix(0.010850694444444444,0,0,0.010850694444444444,0,0)" xlink:href="#af"/><use transform="matrix(0.010850694444444444,0,0,0.010850694444444444,12.944878472222225,0)" xlink:href="#R"/><use transform="matrix(0.010850694444444444,0,0,0.010850694444444444,22.80815972222222,0)" xlink:href="#W"/><use transform="matrix(0.010850694444444444,0,0,0.010850694444444444,31.488715277777775,0)" xlink:href="#ax"/><use transform="matrix(0.010850694444444444,0,0,0.010850694444444444,49.98914930555556,0)" xlink:href="#ae"/><use transform="matrix(0.010850694444444444,0,0,0.010850694444444444,56.14149305555555,0)" xlink:href="#V"/><use transform="matrix(0.010850694444444444,0,0,0.010850694444444444,64.88715277777777,0)" xlink:href="#ae"/><use transform="matrix(0.010850694444444444,0,0,0.010850694444444444,71.03949652777777,0)" xlink:href="#Y"/><use transform="matrix(0.010850694444444444,0,0,0.010850694444444444,82.15060763888889,0)" xlink:href="#aj"/><use transform="matrix(0.010850694444444444,0,0,0.010850694444444444,94.47699652777777,0)" xlink:href="#V"/></g></defs></g></svg>